PathFileType	4	(X/Y/Z)	C:/Users/opensim2020/Desktop/walking_exp_matlab/subject03_walking04_straight_03.trc																																																																																																																																																							
DataRate	CameraRate	NumFrames	NumMarkers	Units	OrigDataRate	OrigDataStartFrame	OrigNumFrames																																																																																																																																																			
100	100	6	51	mm	100	2437	256																																																																																																																																																			
Frame#	Time	LFHD			RFHD			LBHD			RBHD			C7			T10			CLAV			STRN			RBAK			LSHO			LUPA			LELB			LFRM			LWRA			LWRB			LFIN			RSHO			RUPA			RELB			RFRM			RWRA			RWRB			RFIN			LASI			RASI			LPSI			RPSI			LTHI			LKNE			LTIB			LANK			LHEE			LTOE			RTHI			RKNE			RTIB			RANK			RHEE			RTOE			*39			*40			*41			*42			*43			*44			*45			*46			*47			*48			*49			*50		
		X1	Y1	Z1	X2	Y2	Z2	X3	Y3	Z3	X4	Y4	Z4	X5	Y5	Z5	X6	Y6	Z6	X7	Y7	Z7	X8	Y8	Z8	X9	Y9	Z9	X10	Y10	Z10	X11	Y11	Z11	X12	Y12	Z12	X13	Y13	Z13	X14	Y14	Z14	X15	Y15	Z15	X16	Y16	Z16	X17	Y17	Z17	X18	Y18	Z18	X19	Y19	Z19	X20	Y20	Z20	X21	Y21	Z21	X22	Y22	Z22	X23	Y23	Z23	X24	Y24	Z24	X25	Y25	Z25	X26	Y26	Z26	X27	Y27	Z27	X28	Y28	Z28	X29	Y29	Z29	X30	Y30	Z30	X31	Y31	Z31	X32	Y32	Z32	X33	Y33	Z33	X34	Y34	Z34	X35	Y35	Z35	X36	Y36	Z36	X37	Y37	Z37	X38	Y38	Z38	X39	Y39	Z39	X40	Y40	Z40	X41	Y41	Z41	X42	Y42	Z42	X43	Y43	Z43	X44	Y44	Z44	X45	Y45	Z45	X46	Y46	Z46	X47	Y47	Z47	X48	Y48	Z48	X49	Y49	Z49	X50	Y50	Z50	X51	Y51	Z51
																																																																																																																																																										
193	1.92	641.83112	1598.6106	-1237.02661	618.79437	1604.62317	-1105.6272	513.85431	1556.66589	-1253.50427	496.48282	1562.72717	-1123.86829	474.65002	1398.1333	-1185.06409	438.1312	1084.73132	-1184.67151	596.31415	1319.74585	-1182.41785	636.33942	1154.1239	-1181.71216	420.67709	1227.34265	-1081.92993	549.93396	1353.82483	-1340.68835	504.54364	1157.07568	-1405.65869	486.56924	1034.53418	-1414.94788	486.20923	903.35065	-1410.97754	480.68298	786.18085	-1377.77014	458.98474	793.52039	-1428.83411	455.89572	709.43213	-1416.42944	555.36865	1347.61072	-1024.05469	598.12054	1134.99097	-942.47339	644.93005	1034.45911	-925.96191	717.86761	919.6463	-929.31244	786.21234	850.97412	-970.68182	762.63806	829.80078	-927.17773	817.08673	781.20813	-939.55286	614.7395	919.5686	-1288.99243	590.75897	918.20453	-1050.50732	448.0401	941.74292	-1258.32764	435.37054	953.08759	-1109.19946	611.15302	619.46478	-1344.04456	675.03168	455.46713	-1298.19067	689.51575	268.01962	-1306.62317	749.75421	64.29017	-1278.16638	719.84991	24.88173	-1240.45508	905.03265	56.42506	-1256.83569	476.83884	634.75702	-1021.56488	444.58926	457.40939	-1056.71948	335.405	295.92224	-1059.2312	233.13063	104.42474	-1111.75598	182.20775	88.95524	-1163.02429	358.40567	28.44669	-1130.3656	553.13611	1663.19543	-1201.01331	NaN	NaN	NaN	NaN	NaN	NaN	NaN	NaN	NaN	NaN	NaN	NaN	NaN	NaN	NaN	NaN	NaN	NaN	NaN	NaN	NaN	NaN	NaN	NaN	NaN	NaN	NaN	NaN	NaN	NaN	NaN	NaN	NaN
194	1.93	652.66388	1598.55347	-1237.31653	629.05334	1604.47534	-1105.84937	524.7326	1556.56018	-1254.35535	506.88113	1562.49731	-1124.75317	485.12155	1397.73218	-1186.28711	449.80954	1084.08704	-1185.44983	607.11487	1319.72961	-1183.2782	647.63983	1154.29456	-1182.48657	431.55112	1226.65381	-1083.672	561.0116	1353.51392	-1341.71155	515.68701	1156.52979	-1406.25049	497.58054	1033.90442	-1415.28979	496.50583	902.72797	-1411.15735	490.4696	785.73022	-1378.16638	468.64972	793.08734	-1429.0531	464.83231	709.02655	-1416.51343	565.36536	1347.36841	-1024.93115	607.90454	1134.53259	-943.40533	654.37909	1033.83032	-926.89636	727.22504	918.82678	-930.10107	795.19305	849.9472	-971.36951	771.47186	828.82477	-927.98761	825.80536	780.07123	-940.29468	626.32129	919.65027	-1289.72168	602.33551	917.42621	-1051.07031	459.62289	942.02844	-1259.31848	446.92056	952.49719	-1109.96301	624.09204	621.05347	-1344.04065	685.46808	455.76544	-1298.57434	696.87256	267.90033	-1306.07031	753.28308	63.14715	-1278.67651	720.7287	25.87999	-1240.71313	907.37256	45.37823	-1252.09631	487.60394	634.0835	-1022.01312	454.77499	456.7659	-1056.70178	342.42346	297.20554	-1058.81348	235.8683	108.03119	-1110.60449	184.60616	93.9875	-1161.68115	358.74725	28.27607	-1130.13196	563.55414	1661.89368	-1201.578	NaN	NaN	NaN	NaN	NaN	NaN	NaN	NaN	NaN	NaN	NaN	NaN	NaN	NaN	NaN	NaN	NaN	NaN	NaN	NaN	NaN	NaN	NaN	NaN	NaN	NaN	NaN	NaN	NaN	NaN	NaN	NaN	NaN
195	1.94	663.57233	1598.97522	-1237.56604	639.4765	1604.74146	-1106.23425	535.71619	1557.03052	-1255.21631	517.26019	1562.73938	-1125.65552	495.70917	1397.75952	-1187.62366	461.45761	1083.94971	-1186.01672	617.89185	1320.14917	-1184.09607	658.93182	1154.81689	-1183.16724	442.07324	1226.24609	-1085.35437	572.14349	1353.49072	-1342.85376	527.23132	1156.15637	-1406.90942	508.95508	1033.53613	-1415.67175	507.28366	902.33746	-1411.39404	500.76822	785.4079	-1378.41919	478.84915	792.75476	-1429.31042	474.29025	708.78778	-1416.69177	575.48218	1347.50183	-1025.75952	617.56549	1134.2688	-944.43182	663.66211	1033.30664	-927.84094	735.95813	917.95111	-930.80542	803.78424	848.82214	-972.01239	779.82141	827.76904	-928.7373	833.87213	778.70264	-940.99365	638.09625	920.38257	-1290.49756	614.22839	916.80945	-1051.82251	471.40332	942.88831	-1259.98376	458.8504	952.24237	-1110.38611	637.63074	623.5033	-1343.99866	694.97223	456.68793	-1299.42188	703.81134	267.96088	-1306.60559	757.31598	63.05997	-1279.12451	722.23425	27.24076	-1242.42615	909.89502	38.59705	-1246.92896	498.80466	633.55145	-1022.4942	465.68115	456.21194	-1056.65356	350.05524	298.6937	-1058.46033	239.3772	112.04667	-1109.51465	187.58926	99.62854	-1160.52161	359.34793	28.4	-1129.92554	574.01648	1661.66028	-1201.83459	NaN	NaN	NaN	NaN	NaN	NaN	NaN	NaN	NaN	NaN	NaN	NaN	NaN	NaN	NaN	NaN	NaN	NaN	NaN	NaN	NaN	NaN	NaN	NaN	NaN	NaN	NaN	NaN	NaN	NaN	NaN	NaN	NaN
196	1.95	674.54248	1599.71497	-1237.73633	649.87073	1605.23633	-1106.43408	546.73535	1557.98035	-1256.03516	527.72668	1563.453	-1126.61707	506.3674	1398.24292	-1188.82996	473.0032	1084.2218	-1186.4259	628.72974	1320.93555	-1184.98035	670.30231	1155.74341	-1183.91479	452.85178	1226.13074	-1087.01843	583.33972	1353.79785	-1343.91296	539.04431	1156.12732	-1407.5625	520.82819	1033.43469	-1416.08545	518.78119	902.50891	-1411.77112	510.00558	784.71283	-1377.34778	489.74927	792.89496	-1429.74548	484.46475	708.86621	-1416.83191	585.72919	1347.93103	-1026.55225	627.07513	1134.24817	-945.49939	672.80829	1033.01965	-928.78229	744.3515	917.12225	-931.82532	811.83789	847.53961	-972.68939	787.60492	826.66467	-929.46851	841.24475	777.29816	-941.64459	650.01428	921.8847	-1291.1814	626.38861	916.35822	-1052.64758	482.93887	944.46356	-1260.22217	470.96909	952.15399	-1110.53735	651.05804	626.3114	-1343.65637	703.8692	457.5705	-1300.33472	710.46783	268.28989	-1307.47156	761.34924	63.19691	-1278.84802	723.96179	28.58513	-1243.08447	912.8761	35.83648	-1246.54968	510.72037	633.11023	-1023.02734	477.47821	455.78098	-1056.56519	358.25739	300.52139	-1058.04065	243.11674	116.51967	-1108.4375	191.283	105.85956	-1159.66565	360.08261	28.28744	-1129.70679	585.09473	1662.76465	-1202.54199	NaN	NaN	NaN	NaN	NaN	NaN	NaN	NaN	NaN	NaN	NaN	NaN	NaN	NaN	NaN	NaN	NaN	NaN	NaN	NaN	NaN	NaN	NaN	NaN	NaN	NaN	NaN	NaN	NaN	NaN	NaN	NaN	NaN
197	1.96	685.63989	1600.74292	-1237.85339	660.40155	1606.0481	-1106.63757	557.83044	1559.2146	-1256.87451	538.22949	1564.48486	-1127.46594	517.38953	1399.224	-1190.13306	484.45148	1084.92932	-1186.78772	639.54828	1322.10071	-1185.84644	681.63391	1157.05615	-1184.67639	463.63055	1226.54211	-1088.5293	594.59943	1354.50928	-1344.93445	551.10968	1156.44531	-1408.15234	533.1452	1033.66687	-1416.45776	530.66644	902.69629	-1411.97253	521.22552	785.00275	-1377.50085	501.2475	793.08112	-1429.87793	494.71793	708.61316	-1416.7384	596.09045	1348.81958	-1027.34961	636.5946	1134.64807	-946.65741	681.79108	1032.97949	-929.82062	752.30841	916.39655	-932.62823	819.38721	846.21552	-973.29626	794.70221	825.60376	-930.24524	848.05859	775.84174	-942.17871	661.77527	924.15656	-1291.90381	638.82983	916.16302	-1053.66382	494.4537	946.45947	-1260.24365	483.22235	952.36841	-1110.41846	663.92883	629.54974	-1343.03528	712.6153	459.34344	-1300.98767	717.29572	269.10263	-1308.48096	762.48853	63.16879	-1278.06934	724.76831	29.22195	-1242.49902	914.91675	34.47189	-1249.75977	523.3006	632.73456	-1023.46417	490.1879	455.4407	-1056.43262	367.00415	302.80801	-1057.74451	247.54341	121.62624	-1107.41577	195.83919	112.9627	-1158.81982	360.81924	28.30115	-1129.42639	596.15961	1663.83496	-1203.07507	NaN	NaN	NaN	NaN	NaN	NaN	NaN	NaN	NaN	NaN	NaN	NaN	NaN	NaN	NaN	NaN	NaN	NaN	NaN	NaN	NaN	NaN	NaN	NaN	NaN	NaN	NaN	NaN	NaN	NaN	NaN	NaN	NaN
198	1.97	696.77625	1602.05237	-1237.94067	670.88123	1607.1167	-1106.78955	569.00134	1560.83203	-1257.69946	548.70758	1565.75757	-1128.42517	528.07654	1400.58215	-1191.15942	495.71545	1086.04089	-1186.93811	650.26349	1323.58215	-1186.6947	692.97919	1158.73022	-1185.37378	474.43509	1227.36218	-1089.77173	605.81836	1355.64099	-1345.88477	563.47278	1157.19849	-1408.71301	545.90106	1034.2876	-1416.8573	543.16107	903.32147	-1412.17883	532.14435	785.04694	-1377.13257	513.47656	793.70947	-1430.26746	506.63535	709.78497	-1417.21155	606.57483	1350.06628	-1028.2019	645.94849	1135.37634	-947.80798	690.65009	1033.32446	-930.99402	759.92133	915.85712	-933.71307	826.32941	844.94202	-973.94641	801.25592	824.66345	-931.08319	854.00214	774.34796	-942.56091	673.56158	926.91486	-1292.70715	651.34625	916.29572	-1054.8252	506.01807	948.86731	-1260.10156	495.79926	952.8114	-1110.22754	675.69647	632.79016	-1342.66223	721.68408	461.32092	-1301.55151	723.63153	270.11523	-1309.84937	763.16272	63.25182	-1277.45117	725.06024	29.46145	-1242.10022	915.90057	33.68623	-1250.50293	536.61646	632.44073	-1023.91882	503.89377	455.19791	-1056.21191	376.71475	305.54974	-1057.41602	253.05643	127.28326	-1106.5271	201.66022	120.82529	-1158.1947	361.56311	28.17157	-1129.43921	607.32129	1665.22424	-1203.48218	NaN	NaN	NaN	NaN	NaN	NaN	NaN	NaN	NaN	NaN	NaN	NaN	NaN	NaN	NaN	NaN	NaN	NaN	NaN	NaN	NaN	NaN	NaN	NaN	NaN	NaN	NaN	NaN	NaN	NaN	NaN	NaN	NaN
